Coordinates
version=1
nRows=65
nColumns=12
inDegrees=yes

Units are S.I. units (second, meters, Newtons, ...)
Angles are in degrees

endheader
time	SC_y	SC_z	SC_x	AC_y	AC_z	AC_x	GH_y	GH_z	GH_yy	EL_x	PS_y
       0.0              -26.23          7.192          48.97          53.14          1.134          2.305          109.0          28.35         -35.59          48.65          143.4
   0.03055              -26.23          7.191          48.97          53.14          1.135          2.304          109.0          28.35         -35.58          48.64          143.4
    0.0611              -26.23          7.191          48.96          53.14          1.135          2.302          109.0          28.35         -35.58          48.64          143.4
   0.09166              -26.23           7.19          48.96          53.14          1.136            2.3          109.0          28.35         -35.57          48.63          143.4
    0.1222              -26.23          7.189          48.95          53.15          1.137          2.298          108.9          28.34         -35.56          48.62          143.4
    0.1528              -26.23          7.187          48.95          53.15          1.137          2.295          108.9          28.34         -35.56          48.62          143.4
    0.1833              -26.24          7.186          48.94          53.15          1.138          2.293          108.8          28.34         -35.55          48.61          143.4
    0.2139              -26.24          7.185          48.93          53.15          1.139          2.291          108.8          28.34         -35.54           48.6          143.4
    0.2444              -26.24          7.184          48.93          53.15           1.14          2.288          108.8          28.33         -35.53           48.6          143.4
     0.275              -26.24          7.182          48.92          53.16          1.141          2.285          108.7          28.33         -35.52          48.59          143.4
    0.3055              -26.24          7.181          48.91          53.16          1.142          2.282          108.7          28.33         -35.51          48.58          143.4
    0.3361              -26.24          7.179           48.9          53.16          1.143          2.279          108.6          28.33          -35.5          48.57          143.4
    0.3666              -26.24          7.177          48.89          53.16          1.144          2.275          108.6          28.32         -35.49          48.56          143.4
    0.3972              -26.25          7.175          48.88          53.17          1.146          2.271          108.5          28.32         -35.47          48.55          143.4
    0.4277              -26.25          7.173          48.87          53.17          1.147          2.267          108.4          28.32         -35.46          48.53          143.4
    0.4583              -26.25          7.171          48.86          53.18          1.149          2.262          108.3          28.31         -35.44          48.52          143.4
    0.4888              -26.25          7.168          48.85          53.18           1.15          2.257          108.3          28.31         -35.43           48.5          143.4
    0.5194              -26.26          7.165          48.83          53.18          1.152          2.252          108.2           28.3         -35.41          48.49          143.4
    0.5499              -26.26          7.162          48.82          53.19          1.154          2.246          108.1           28.3         -35.39          48.47          143.4
    0.5805              -26.26          7.159           48.8           53.2          1.156           2.24          108.0          28.29         -35.37          48.45          143.4
     0.611              -26.27          7.156          48.78           53.2          1.159          2.232          107.9          28.29         -35.34          48.43          143.4
    0.6416              -26.27          7.152          48.76          53.21          1.161          2.225          107.7          28.28         -35.32          48.41          143.4
    0.6722              -26.27          7.147          48.74          53.22          1.164          2.216          107.6          28.27         -35.29          48.38          143.4
    0.7027              -26.28          7.142          48.71          53.22          1.168          2.206          107.4          28.26         -35.26          48.35          143.3
    0.7333              -26.28          7.137          48.69          53.23          1.171          2.196          107.3          28.25         -35.22          48.32          143.3
    0.7638              -26.29          7.131          48.65          53.24          1.175          2.184          107.1          28.24         -35.18          48.29          143.3
    0.7944               -26.3          7.124          48.62          53.25           1.18          2.171          106.9          28.23         -35.14          48.25          143.3
    0.8249               -26.3          7.117          48.58          53.27          1.185          2.156          106.6          28.22         -35.09           48.2          143.3
    0.8555              -26.31          7.108          48.54          53.28          1.191          2.139          106.3           28.2         -35.03          48.15          143.3
     0.886              -26.32          7.099          48.49           53.3          1.197           2.12          106.0          28.19         -34.96           48.1          143.3
    0.9166              -26.33          7.088          48.43          53.32          1.205          2.098          105.7          28.17         -34.89          48.03          143.2
    0.9471              -26.34          7.075          48.36          53.34          1.213          2.073          105.3          28.14         -34.81          47.96          143.2
    0.9777              -26.36           7.06          48.29          53.36          1.223          2.044          104.8          28.12         -34.71          47.87          143.2
     1.008              -26.37          7.043           48.2          53.39          1.234           2.01          104.2          28.09          -34.6          47.77          143.2
     1.039              -26.39          7.023           48.1          53.43          1.248          1.971          103.6          28.05         -34.46          47.65          143.1
     1.069              -26.41            7.0          47.97          53.47          1.264          1.924          102.8          28.01         -34.31          47.52          143.1
       1.1              -26.44          6.972          47.83          53.51          1.282          1.869          101.9          27.96         -34.12          47.35          143.0
      1.13              -26.47          6.938          47.66          53.57          1.305          1.803          100.9           27.9          -33.9          47.16          142.9
     1.161              -26.51          6.898          47.45          53.64          1.332          1.723          99.56          27.83         -33.63          46.92          142.9
     1.192              -26.56          6.849          47.19          53.72          1.365          1.625          97.97          27.75          -33.3          46.63          142.8
     1.222              -26.62          6.787          46.87          53.83          1.406          1.504           96.0          27.64         -32.89          46.27          142.7
     1.253              -26.69          6.711          46.48          53.96          1.458          1.353          93.55          27.51         -32.39          45.82          142.5
     1.283              -26.78          6.616          45.98          54.12          1.522          1.164          90.46          27.34         -31.75          45.26          142.3
     1.314               -26.9          6.494          45.35          54.33          1.604         0.9225          86.54          27.12         -30.94          44.55          142.1
     1.344              -27.05          6.338          44.54          54.59          1.709         0.6139          81.52          26.85          -29.9          43.63          141.8
     1.375              -27.24          6.138           43.5          54.93          1.843         0.2178          75.07           26.5         -28.57          42.46          141.4
     1.405              -27.49          5.882          42.18          55.37          2.015        -0.2881          66.83          26.05         -26.86          40.96          140.9
     1.436              -27.79          5.561          40.51          55.91          2.232        -0.9243          56.48          25.49         -24.72          39.07          140.3
     1.467              -28.17          5.169          38.48          56.58          2.495           -1.7          43.86           24.8         -22.12          36.78          139.5
     1.497               -28.6          4.715          36.12          57.35            2.8         -2.598          29.23           24.0         -19.09          34.11          138.7
     1.528              -29.08          4.223          33.57          58.18          3.131         -3.571          13.39          23.14         -15.82          31.23          137.7
     1.558              -29.55          3.732          31.02          59.02          3.462         -4.544         -2.448          22.28         -12.55          28.34          136.8
     1.589              -29.98          3.278          28.66          59.79          3.767         -5.443         -17.08          21.48         -9.524          25.68          135.9
     1.619              -30.36          2.886          26.63          60.46          4.031         -6.218          -29.7           20.8         -6.917          23.38          135.1
      1.65              -30.66          2.565          24.97           61.0          4.247         -6.854         -40.05          20.23         -4.776           21.5          134.5
      1.68              -30.91          2.309          23.64          61.44          4.419          -7.36         -48.29          19.78         -3.074           20.0          134.0
     1.711               -31.1          2.109           22.6          61.78          4.553         -7.756         -54.73          19.43         -1.742          18.82          133.6
     1.741              -31.25          1.953          21.79          62.04          4.658         -8.065         -59.76          19.16        -0.7036          17.91          133.3
     1.772              -31.37          1.831          21.16          62.25           4.74         -8.306         -63.68          18.95         0.1076          17.19          133.1
     1.803              -31.46          1.735          20.66          62.41          4.805         -8.496         -66.77          18.78         0.7457          16.63          132.9
     1.833              -31.53          1.659          20.27          62.54          4.856         -8.646         -69.22          18.64          1.252          16.18          132.7
     1.864              -31.59          1.598          19.95          62.64          4.897         -8.767         -71.19          18.54          1.658          15.83          132.6
     1.894              -31.64          1.549           19.7          62.73           4.93         -8.865         -72.78          18.45          1.988          15.54          132.5
     1.925              -31.68          1.508          19.49           62.8          4.957         -8.945         -74.08          18.38          2.257           15.3          132.5
     1.955              -31.71          1.475          19.31          62.85           4.98         -9.011         -75.16          18.32           2.48           15.1          132.4
